<mxfile host="app.diagrams.net" modified="2023-03-26T05:48:27.931Z" agent="Mozilla/5.0 (Windows NT 10.0; Win64; x64) AppleWebKit/537.36 (KHTML, like Gecko) Chrome/111.0.0.0 Safari/537.36" etag="r04_MB2qJ6oaH35Jdnpd" version="21.1.0" type="device">
  <diagram name="Страница 1" id="h6YIPLfweoiPo7-2pFuc">
    <mxGraphModel dx="1590" dy="1013" grid="1" gridSize="10" guides="1" tooltips="1" connect="1" arrows="1" fold="1" page="1" pageScale="1" pageWidth="1169" pageHeight="827" math="0" shadow="0">
      <root>
        <mxCell id="0" />
        <mxCell id="1" parent="0" />
        <mxCell id="c1LWL1nOwDJ9CmmT7rTW-3" value="" style="edgeStyle=orthogonalEdgeStyle;rounded=0;orthogonalLoop=1;jettySize=auto;html=1;" edge="1" parent="1" source="c1LWL1nOwDJ9CmmT7rTW-1" target="c1LWL1nOwDJ9CmmT7rTW-2">
          <mxGeometry relative="1" as="geometry" />
        </mxCell>
        <mxCell id="c1LWL1nOwDJ9CmmT7rTW-1" value="string [] array = {array[0], array[1]...}" style="rounded=1;whiteSpace=wrap;html=1;" vertex="1" parent="1">
          <mxGeometry x="160" y="10" width="280" height="60" as="geometry" />
        </mxCell>
        <mxCell id="c1LWL1nOwDJ9CmmT7rTW-5" value="" style="edgeStyle=orthogonalEdgeStyle;rounded=0;orthogonalLoop=1;jettySize=auto;html=1;" edge="1" parent="1" source="c1LWL1nOwDJ9CmmT7rTW-2" target="c1LWL1nOwDJ9CmmT7rTW-4">
          <mxGeometry relative="1" as="geometry" />
        </mxCell>
        <mxCell id="c1LWL1nOwDJ9CmmT7rTW-2" value="int count = 0" style="whiteSpace=wrap;html=1;rounded=1;" vertex="1" parent="1">
          <mxGeometry x="180" y="90" width="240" height="60" as="geometry" />
        </mxCell>
        <mxCell id="c1LWL1nOwDJ9CmmT7rTW-7" value="NO" style="edgeStyle=orthogonalEdgeStyle;rounded=0;orthogonalLoop=1;jettySize=auto;html=1;" edge="1" parent="1" source="c1LWL1nOwDJ9CmmT7rTW-4" target="c1LWL1nOwDJ9CmmT7rTW-6">
          <mxGeometry relative="1" as="geometry" />
        </mxCell>
        <mxCell id="c1LWL1nOwDJ9CmmT7rTW-12" value="YES" style="edgeStyle=orthogonalEdgeStyle;rounded=0;orthogonalLoop=1;jettySize=auto;html=1;" edge="1" parent="1" source="c1LWL1nOwDJ9CmmT7rTW-4" target="c1LWL1nOwDJ9CmmT7rTW-11">
          <mxGeometry relative="1" as="geometry" />
        </mxCell>
        <mxCell id="c1LWL1nOwDJ9CmmT7rTW-4" value="Остались ли элементы в цикле" style="rhombus;whiteSpace=wrap;html=1;rounded=1;" vertex="1" parent="1">
          <mxGeometry x="160" y="250" width="280" height="80" as="geometry" />
        </mxCell>
        <mxCell id="c1LWL1nOwDJ9CmmT7rTW-23" value="" style="edgeStyle=orthogonalEdgeStyle;rounded=0;orthogonalLoop=1;jettySize=auto;html=1;" edge="1" parent="1" source="c1LWL1nOwDJ9CmmT7rTW-6" target="c1LWL1nOwDJ9CmmT7rTW-22">
          <mxGeometry relative="1" as="geometry" />
        </mxCell>
        <mxCell id="c1LWL1nOwDJ9CmmT7rTW-6" value="string [] newArray = new string [count]" style="whiteSpace=wrap;html=1;rounded=1;" vertex="1" parent="1">
          <mxGeometry x="195" y="420" width="210" height="60" as="geometry" />
        </mxCell>
        <mxCell id="c1LWL1nOwDJ9CmmT7rTW-17" value="YES" style="edgeStyle=orthogonalEdgeStyle;rounded=0;orthogonalLoop=1;jettySize=auto;html=1;" edge="1" parent="1" source="c1LWL1nOwDJ9CmmT7rTW-11" target="c1LWL1nOwDJ9CmmT7rTW-16">
          <mxGeometry relative="1" as="geometry" />
        </mxCell>
        <mxCell id="c1LWL1nOwDJ9CmmT7rTW-11" value="el.Length &amp;lt;= 3&amp;nbsp;&amp;nbsp;" style="rhombus;whiteSpace=wrap;html=1;rounded=1;" vertex="1" parent="1">
          <mxGeometry x="500" y="250" width="280" height="80" as="geometry" />
        </mxCell>
        <mxCell id="c1LWL1nOwDJ9CmmT7rTW-15" value="NO" style="endArrow=classic;html=1;rounded=0;exitX=0.5;exitY=0;exitDx=0;exitDy=0;" edge="1" parent="1" source="c1LWL1nOwDJ9CmmT7rTW-11">
          <mxGeometry width="50" height="50" relative="1" as="geometry">
            <mxPoint x="510" y="220" as="sourcePoint" />
            <mxPoint x="300" y="200" as="targetPoint" />
            <Array as="points">
              <mxPoint x="640" y="200" />
            </Array>
          </mxGeometry>
        </mxCell>
        <mxCell id="c1LWL1nOwDJ9CmmT7rTW-16" value="count ++" style="whiteSpace=wrap;html=1;rounded=1;" vertex="1" parent="1">
          <mxGeometry x="840" y="260" width="120" height="60" as="geometry" />
        </mxCell>
        <mxCell id="c1LWL1nOwDJ9CmmT7rTW-18" value="" style="endArrow=classic;html=1;rounded=0;exitX=0.5;exitY=0;exitDx=0;exitDy=0;" edge="1" parent="1" source="c1LWL1nOwDJ9CmmT7rTW-16">
          <mxGeometry width="50" height="50" relative="1" as="geometry">
            <mxPoint x="600" y="300" as="sourcePoint" />
            <mxPoint x="640" y="200" as="targetPoint" />
            <Array as="points">
              <mxPoint x="900" y="200" />
            </Array>
          </mxGeometry>
        </mxCell>
        <mxCell id="c1LWL1nOwDJ9CmmT7rTW-19" value="foreach" style="text;html=1;strokeColor=none;fillColor=none;align=center;verticalAlign=middle;whiteSpace=wrap;rounded=0;rotation=0;" vertex="1" parent="1">
          <mxGeometry x="270" y="260" width="60" height="30" as="geometry" />
        </mxCell>
        <mxCell id="c1LWL1nOwDJ9CmmT7rTW-25" value="" style="edgeStyle=orthogonalEdgeStyle;rounded=0;orthogonalLoop=1;jettySize=auto;html=1;" edge="1" parent="1" source="c1LWL1nOwDJ9CmmT7rTW-22" target="c1LWL1nOwDJ9CmmT7rTW-24">
          <mxGeometry relative="1" as="geometry" />
        </mxCell>
        <mxCell id="c1LWL1nOwDJ9CmmT7rTW-22" value="int i = 0&lt;br&gt;int j = 0" style="whiteSpace=wrap;html=1;rounded=1;" vertex="1" parent="1">
          <mxGeometry x="200" y="510" width="200" height="60" as="geometry" />
        </mxCell>
        <mxCell id="c1LWL1nOwDJ9CmmT7rTW-29" value="yes" style="edgeStyle=orthogonalEdgeStyle;rounded=0;orthogonalLoop=1;jettySize=auto;html=1;" edge="1" parent="1" source="c1LWL1nOwDJ9CmmT7rTW-24" target="c1LWL1nOwDJ9CmmT7rTW-28">
          <mxGeometry relative="1" as="geometry" />
        </mxCell>
        <mxCell id="c1LWL1nOwDJ9CmmT7rTW-37" value="NO" style="edgeStyle=orthogonalEdgeStyle;rounded=0;orthogonalLoop=1;jettySize=auto;html=1;" edge="1" parent="1" source="c1LWL1nOwDJ9CmmT7rTW-24" target="c1LWL1nOwDJ9CmmT7rTW-36">
          <mxGeometry relative="1" as="geometry" />
        </mxCell>
        <mxCell id="c1LWL1nOwDJ9CmmT7rTW-24" value="i &amp;lt; array.Length" style="rhombus;whiteSpace=wrap;html=1;rounded=1;" vertex="1" parent="1">
          <mxGeometry x="200" y="720" width="200" height="80" as="geometry" />
        </mxCell>
        <mxCell id="c1LWL1nOwDJ9CmmT7rTW-31" value="NO" style="edgeStyle=orthogonalEdgeStyle;rounded=0;orthogonalLoop=1;jettySize=auto;html=1;exitX=0.5;exitY=0;exitDx=0;exitDy=0;entryX=0.5;entryY=1;entryDx=0;entryDy=0;" edge="1" parent="1" source="c1LWL1nOwDJ9CmmT7rTW-28" target="c1LWL1nOwDJ9CmmT7rTW-30">
          <mxGeometry relative="1" as="geometry">
            <Array as="points">
              <mxPoint x="580" y="690" />
              <mxPoint x="580" y="690" />
            </Array>
            <mxPoint as="offset" />
          </mxGeometry>
        </mxCell>
        <mxCell id="c1LWL1nOwDJ9CmmT7rTW-33" value="YES" style="edgeStyle=orthogonalEdgeStyle;rounded=0;orthogonalLoop=1;jettySize=auto;html=1;" edge="1" parent="1" source="c1LWL1nOwDJ9CmmT7rTW-28" target="c1LWL1nOwDJ9CmmT7rTW-32">
          <mxGeometry relative="1" as="geometry" />
        </mxCell>
        <mxCell id="c1LWL1nOwDJ9CmmT7rTW-28" value="array[i].Length &amp;lt;= 3" style="rhombus;whiteSpace=wrap;html=1;rounded=1;" vertex="1" parent="1">
          <mxGeometry x="480" y="720" width="200" height="80" as="geometry" />
        </mxCell>
        <mxCell id="c1LWL1nOwDJ9CmmT7rTW-30" value="i++" style="whiteSpace=wrap;html=1;rounded=1;" vertex="1" parent="1">
          <mxGeometry x="520" y="600" width="120" height="60" as="geometry" />
        </mxCell>
        <mxCell id="c1LWL1nOwDJ9CmmT7rTW-32" value="newArray[j] = array[i]&lt;br&gt;j++" style="whiteSpace=wrap;html=1;rounded=1;" vertex="1" parent="1">
          <mxGeometry x="800" y="730" width="180" height="60" as="geometry" />
        </mxCell>
        <mxCell id="c1LWL1nOwDJ9CmmT7rTW-34" value="" style="endArrow=classic;html=1;rounded=0;exitX=0;exitY=0.5;exitDx=0;exitDy=0;" edge="1" parent="1" source="c1LWL1nOwDJ9CmmT7rTW-30">
          <mxGeometry width="50" height="50" relative="1" as="geometry">
            <mxPoint x="430" y="720" as="sourcePoint" />
            <mxPoint x="300" y="630" as="targetPoint" />
          </mxGeometry>
        </mxCell>
        <mxCell id="c1LWL1nOwDJ9CmmT7rTW-35" value="" style="endArrow=classic;html=1;rounded=0;exitX=0.5;exitY=0;exitDx=0;exitDy=0;entryX=1;entryY=0.5;entryDx=0;entryDy=0;" edge="1" parent="1" source="c1LWL1nOwDJ9CmmT7rTW-32" target="c1LWL1nOwDJ9CmmT7rTW-30">
          <mxGeometry width="50" height="50" relative="1" as="geometry">
            <mxPoint x="430" y="710" as="sourcePoint" />
            <mxPoint x="480" y="660" as="targetPoint" />
            <Array as="points">
              <mxPoint x="890" y="630" />
            </Array>
          </mxGeometry>
        </mxCell>
        <mxCell id="c1LWL1nOwDJ9CmmT7rTW-36" value="вывод newArray" style="shape=document;whiteSpace=wrap;html=1;boundedLbl=1;rounded=1;" vertex="1" parent="1">
          <mxGeometry x="240" y="880" width="120" height="80" as="geometry" />
        </mxCell>
      </root>
    </mxGraphModel>
  </diagram>
</mxfile>
